<svg width="20" height="20" viewBox="0 0 20 20" fill="none" xmlns="http://www.w3.org/2000/svg">
<path d="M11.1854 10.0123L11.1962 10.0029L11.1854 9.9935L6.11195 5.54566L6.10371 5.55506L6.11195 5.54566C5.94212 5.39679 5.85544 5.21008 5.85152 4.98471L5.85152 4.98471C5.84758 4.7597 5.93409 4.56962 6.11195 4.41371L6.11195 4.41371C6.28995 4.25765 6.50573 4.17949 6.76003 4.17949C7.01432 4.17949 7.2301 4.25765 7.4081 4.41371L13.0062 9.32142C13.1217 9.42268 13.2026 9.52901 13.2496 9.64028C13.2968 9.75202 13.3205 9.87285 13.3205 10.0029C13.3205 10.133 13.2968 10.2538 13.2496 10.3655C13.2026 10.4768 13.1217 10.5831 13.0062 10.6844L13.0144 10.6938L13.0062 10.6844L7.4081 15.5921C7.23819 15.7411 7.0244 15.8176 6.76584 15.821C6.50755 15.8245 6.28986 15.7481 6.11195 15.5921L6.10371 15.6015L6.11195 15.5921C5.93399 15.4361 5.84551 15.2477 5.84551 15.0261C5.84551 14.8046 5.93399 14.6161 6.11195 14.4601L11.1854 10.0123Z" fill="white" stroke="white" stroke-width="0.025"/>
</svg>
