<svg width="20" height="20" viewBox="0 0 20 20" fill="none" xmlns="http://www.w3.org/2000/svg">
<path d="M7.98882 9.9971L13.0623 14.4449C13.2348 14.5961 13.323 14.7862 13.327 15.0151C13.331 15.244 13.2428 15.4375 13.0623 15.5957C12.8819 15.7539 12.6631 15.833 12.406 15.833C12.1489 15.833 11.9301 15.7539 11.7497 15.5957L6.15161 10.688C6.03502 10.5858 5.95277 10.478 5.90488 10.3646C5.85696 10.2512 5.83301 10.1287 5.83301 9.9971C5.83301 9.86549 5.85696 9.743 5.90488 9.62961C5.95277 9.51621 6.03502 9.40841 6.15161 9.30621L11.7497 4.39851C11.9221 4.2473 12.1389 4.16995 12.4 4.16646C12.6611 4.16294 12.8819 4.24029 13.0623 4.39851C13.2428 4.5567 13.333 4.74849 13.333 4.97388C13.333 5.19927 13.2428 5.39106 13.0623 5.54926L7.98882 9.9971Z" fill="white"/>
</svg>
