<svg width="20" height="20" viewBox="0 0 20 20" fill="none" xmlns="http://www.w3.org/2000/svg">
<path d="M9.99967 11.6665C10.458 11.6665 10.8504 11.5033 11.1768 11.1769C11.5031 10.8505 11.6663 10.4582 11.6663 9.99984C11.6663 9.5415 11.5031 9.14914 11.1768 8.82275C10.8504 8.49637 10.458 8.33317 9.99967 8.33317C9.54134 8.33317 9.14898 8.49637 8.82259 8.82275C8.4962 9.14914 8.33301 9.5415 8.33301 9.99984C8.33301 10.4582 8.4962 10.8505 8.82259 11.1769C9.14898 11.5033 9.54134 11.6665 9.99967 11.6665ZM6.66634 14.9998H13.333V14.5207C13.333 14.1873 13.2427 13.8818 13.0622 13.604C12.8816 13.3262 12.6316 13.1179 12.3122 12.979C11.9511 12.8262 11.5795 12.7082 11.1976 12.6248C10.8156 12.5415 10.4163 12.4998 9.99967 12.4998C9.58301 12.4998 9.1837 12.5415 8.80176 12.6248C8.41981 12.7082 8.04829 12.8262 7.68717 12.979C7.36773 13.1179 7.11773 13.3262 6.93717 13.604C6.75662 13.8818 6.66634 14.1873 6.66634 14.5207V14.9998ZM14.9997 18.3332H4.99967C4.54134 18.3332 4.14898 18.17 3.82259 17.8436C3.4962 17.5172 3.33301 17.1248 3.33301 16.6665V3.33317C3.33301 2.87484 3.4962 2.48248 3.82259 2.15609C4.14898 1.8297 4.54134 1.6665 4.99967 1.6665H10.9788C11.2011 1.6665 11.4129 1.70817 11.6143 1.7915C11.8156 1.87484 11.9927 1.99289 12.1455 2.14567L16.1872 6.18734C16.34 6.34012 16.458 6.5172 16.5413 6.71859C16.6247 6.91998 16.6663 7.13178 16.6663 7.354V16.6665C16.6663 17.1248 16.5031 17.5172 16.1768 17.8436C15.8504 18.17 15.458 18.3332 14.9997 18.3332ZM14.9997 16.6665V7.37484L10.958 3.33317H4.99967V16.6665H14.9997Z" fill="white"/>
</svg>
