<svg width="20" height="20" viewBox="0 0 20 20" fill="none" xmlns="http://www.w3.org/2000/svg">
<path d="M3.13756 16.8631H4.37435L14.4102 6.8272L13.1734 5.59041L3.13756 15.6263V16.8631ZM2.55312 18.3337C2.30206 18.3337 2.09161 18.2487 1.92177 18.0789C1.75192 17.909 1.66699 17.6986 1.66699 17.4475V15.7488C1.66699 15.5098 1.71287 15.2819 1.80464 15.0652C1.89639 14.8485 2.0227 14.6598 2.18359 14.4989L14.5988 2.08932C14.747 1.95467 14.9107 1.85061 15.0899 1.77716C15.269 1.70372 15.4569 1.66699 15.6534 1.66699C15.85 1.66699 16.0404 1.70188 16.2247 1.77165C16.4089 1.8414 16.5721 1.95232 16.7141 2.1044L17.9113 3.31668C18.0634 3.45871 18.1718 3.62214 18.2366 3.80697C18.3013 3.9918 18.3337 4.17662 18.3337 4.36144C18.3337 4.55858 18.3 4.74672 18.2327 4.92585C18.1653 5.105 18.0582 5.2687 17.9113 5.41696L5.50178 17.8171C5.3409 17.9779 5.15213 18.1043 4.93546 18.196C4.71877 18.2878 4.49089 18.3337 4.2518 18.3337H2.55312ZM13.781 6.21965L13.1734 5.59041L14.4102 6.8272L13.781 6.21965Z" fill="white"/>
</svg>
