<svg width="24" height="24" viewBox="0 0 24 24" fill="none" xmlns="http://www.w3.org/2000/svg">
<path d="M3.76468 20.2353H5.24883L17.2919 8.19225L15.8077 6.7081L3.76468 18.7512V20.2353ZM3.06336 22C2.76208 22 2.50954 21.8981 2.30574 21.6943C2.10191 21.4905 2 21.2379 2 20.9366V18.8982C2 18.6113 2.05506 18.3379 2.16518 18.0778C2.27528 17.8178 2.42685 17.5913 2.61991 17.3983L17.5182 2.5068C17.6961 2.34521 17.8925 2.22034 18.1075 2.13221C18.3224 2.04407 18.5478 2 18.7837 2C19.0196 2 19.2481 2.04186 19.4692 2.12559C19.6903 2.2093 19.8861 2.34239 20.0566 2.52488L21.4932 3.97962C21.6757 4.15006 21.8058 4.34617 21.8835 4.56798C21.9612 4.78976 22 5.01155 22 5.23333C22 5.4699 21.9596 5.69567 21.8788 5.91063C21.798 6.12561 21.6695 6.32205 21.4932 6.49996L6.60175 21.3801C6.40869 21.5731 6.18216 21.7247 5.92216 21.8348C5.66214 21.9449 5.38868 22 5.10177 22H3.06336ZM16.5368 7.46319L15.8077 6.7081L17.2919 8.19225L16.5368 7.46319Z" fill="white"/>
</svg>
