<svg width="24" height="24" viewBox="0 0 24 24" fill="none" xmlns="http://www.w3.org/2000/svg">
<path d="M4.79739 12.7932C4.84339 13.2052 4.54739 13.5762 4.13639 13.6222C4.10739 13.6252 4.07939 13.6272 4.05139 13.6272C3.67539 13.6272 3.35039 13.3442 3.30739 12.9612C3.00939 10.3092 3.92239 7.70321 5.81339 5.81321C9.04039 2.58521 14.1804 2.41621 17.6144 5.29521V4.22221C17.6144 3.80821 17.9504 3.47221 18.3644 3.47221C18.7784 3.47221 19.1144 3.80821 19.1144 4.22221V7.05021C19.1144 7.46421 18.7784 7.80021 18.3644 7.80021H15.5364C15.1224 7.80021 14.7864 7.46421 14.7864 7.05021C14.7864 6.63621 15.1224 6.30021 15.5364 6.30021H16.4734C13.6304 4.06721 9.49339 4.25521 6.87439 6.87321C5.30839 8.43921 4.55039 10.5982 4.79739 12.7932ZM20.6934 11.0392C20.6474 10.6282 20.2804 10.3362 19.8644 10.3782C19.4524 10.4242 19.1564 10.7952 19.2034 11.2072C19.4504 13.4022 18.6934 15.5612 17.1274 17.1272C14.5084 19.7452 10.3714 19.9332 7.52839 17.7002H8.46539C8.87939 17.7002 9.21539 17.3642 9.21539 16.9502C9.21539 16.5362 8.87939 16.2002 8.46539 16.2002H5.63739C5.22339 16.2002 4.88739 16.5362 4.88739 16.9502V19.7782C4.88739 20.1922 5.22339 20.5282 5.63739 20.5282C6.05139 20.5282 6.38739 20.1922 6.38739 19.7782V18.7052C8.00639 20.0622 10.0024 20.7462 12.0014 20.7462C14.2424 20.7462 16.4824 19.8932 18.1884 18.1872C20.0794 16.2962 20.9914 13.6912 20.6934 11.0392Z" fill="white"/>
</svg>
