<svg width="24" height="24" viewBox="0 0 24 24" fill="none" xmlns="http://www.w3.org/2000/svg">
<path d="M8.46925 13.5302L11.4693 16.5302C11.7623 16.8232 12.2373 16.8232 12.5303 16.5302L15.5303 13.5303C15.8233 13.2373 15.8233 12.7622 15.5303 12.4692C15.2373 12.1762 14.7623 12.1762 14.4693 12.4692L12.7493 14.1892L12.7493 4.00025C12.7493 3.58625 12.4133 3.25025 11.9993 3.25025C11.5853 3.25025 11.2493 3.58625 11.2493 4.00025L11.2493 14.1892L9.52925 12.4692C9.38325 12.3232 9.19125 12.2492 8.99925 12.2492C8.80725 12.2492 8.61525 12.3222 8.46925 12.4692C8.17625 12.7622 8.17625 13.2372 8.46925 13.5302Z" fill="white"/>
<path d="M18 20.75H6C4.483 20.75 3.25 19.517 3.25 18V13C3.25 11.483 4.483 10.25 6 10.25H7C7.414 10.25 7.75 10.586 7.75 11C7.75 11.414 7.414 11.75 7 11.75H6C5.311 11.75 4.75 12.311 4.75 13V18C4.75 18.689 5.311 19.25 6 19.25H18C18.689 19.25 19.25 18.689 19.25 18V13C19.25 12.311 18.689 11.75 18 11.75H17C16.586 11.75 16.25 11.414 16.25 11C16.25 10.586 16.586 10.25 17 10.25H18C19.517 10.25 20.75 11.483 20.75 13V18C20.75 19.517 19.517 20.75 18 20.75Z" fill="white"/>
</svg>
