<svg width="24" height="24" viewBox="0 0 24 24" fill="none" xmlns="http://www.w3.org/2000/svg">
<path d="M12.7037 16.7037C12.5145 16.8929 12.2802 16.9875 12 16.9875C11.7198 16.9875 11.4855 16.8929 11.2963 16.7037C11.1071 16.5145 11.0125 16.2802 11.0125 16V12C11.0125 11.7198 11.1071 11.4855 11.2963 11.2963C11.4855 11.1071 11.7198 11.0125 12 11.0125C12.2802 11.0125 12.5145 11.1071 12.7037 11.2963C12.8929 11.4855 12.9875 11.7198 12.9875 12V16C12.9875 16.2802 12.8929 16.5145 12.7037 16.7037ZM12.7037 8.70366C12.5145 8.89287 12.2802 8.9875 12 8.9875C11.7198 8.9875 11.4855 8.89287 11.2963 8.70366C11.1071 8.51445 11.0125 8.28019 11.0125 8C11.0125 7.71981 11.1071 7.48555 11.2963 7.29634C11.4855 7.10713 11.7198 7.0125 12 7.0125C12.2802 7.0125 12.5145 7.10713 12.7037 7.29634C12.8929 7.48555 12.9875 7.71981 12.9875 8C12.9875 8.28019 12.8929 8.51445 12.7037 8.70366ZM12 21.9875C10.6183 21.9875 9.31999 21.7253 8.10495 21.201C6.88968 20.6766 5.83268 19.965 4.93384 19.0662C4.035 18.1673 3.32338 17.1103 2.79898 15.895C2.27468 14.68 2.0125 13.3817 2.0125 12C2.0125 10.6183 2.27468 9.31999 2.79898 8.10495C3.32338 6.88968 4.035 5.83268 4.93384 4.93384C5.83268 4.035 6.88968 3.32338 8.10495 2.79898C9.31999 2.27468 10.6183 2.0125 12 2.0125C13.3817 2.0125 14.68 2.27468 15.895 2.79898C17.1103 3.32338 18.1673 4.035 19.0662 4.93384C19.965 5.83268 20.6766 6.88968 21.201 8.10495C21.7253 9.31999 21.9875 10.6183 21.9875 12C21.9875 13.3817 21.7253 14.68 21.201 15.895C20.6766 17.1103 19.965 18.1673 19.0662 19.0662C18.1673 19.965 17.1103 20.6766 15.895 21.201C14.68 21.7253 13.3817 21.9875 12 21.9875ZM12 20.0125C14.2366 20.0125 16.1314 19.2362 17.6838 17.6838C19.2362 16.1314 20.0125 14.2366 20.0125 12C20.0125 9.76342 19.2362 7.86855 17.6838 6.31616C16.1314 4.76377 14.2366 3.9875 12 3.9875C9.76342 3.9875 7.86855 4.76377 6.31616 6.31616C4.76377 7.86855 3.9875 9.76342 3.9875 12C3.9875 14.2366 4.76377 16.1314 6.31616 17.6838C7.86855 19.2362 9.76342 20.0125 12 20.0125Z" fill="white" stroke="white" stroke-width="0.025"/>
</svg>
