<svg width="24" height="24" viewBox="0 0 24 24" fill="none" xmlns="http://www.w3.org/2000/svg">
<path d="M7 8.0125H7.0125V8V6C7.0125 4.61997 7.49869 3.44399 8.47134 2.47134C9.44399 1.49869 10.62 1.0125 12 1.0125C13.38 1.0125 14.556 1.49869 15.5287 2.47134C16.5013 3.44399 16.9875 4.61997 16.9875 6V8V8.0125H17H18C18.5467 8.0125 19.0143 8.207 19.4037 8.59634C19.793 8.98568 19.9875 9.45334 19.9875 10V20C19.9875 20.5467 19.793 21.0143 19.4037 21.4037C19.0143 21.793 18.5467 21.9875 18 21.9875H6C5.45334 21.9875 4.98568 21.793 4.59634 21.4037C4.207 21.0143 4.0125 20.5467 4.0125 20V10C4.0125 9.45334 4.207 8.98568 4.59634 8.59634C4.98568 8.207 5.45334 8.0125 6 8.0125H7ZM5.9875 20V20.0125H6H18H18.0125V20V10V9.9875H18H6H5.9875V10V20ZM8.9875 8V8.0125H9H15H15.0125V8V6C15.0125 5.16339 14.7195 4.45187 14.1338 3.86616C13.5481 3.28046 12.8366 2.9875 12 2.9875C11.1634 2.9875 10.4519 3.28046 9.86616 3.86616C9.28046 4.45187 8.9875 5.16339 8.9875 6V8ZM13.4037 16.4037C13.0143 16.793 12.5467 16.9875 12 16.9875C11.4533 16.9875 10.9857 16.793 10.5963 16.4037C10.207 16.0143 10.0125 15.5467 10.0125 15C10.0125 14.4533 10.207 13.9857 10.5963 13.5963C10.9857 13.207 11.4533 13.0125 12 13.0125C12.5467 13.0125 13.0143 13.207 13.4037 13.5963C13.793 13.9857 13.9875 14.4533 13.9875 15C13.9875 15.5467 13.793 16.0143 13.4037 16.4037Z" fill="white" stroke="white" stroke-width="0.025"/>
</svg>
