<svg width="24" height="24" viewBox="0 0 24 24" fill="none" xmlns="http://www.w3.org/2000/svg">
<path d="M5.08729 5.08729L5.08728 5.08729C5.02129 5.1533 4.98747 5.22687 4.98747 5.3077V18.6923C4.98747 18.7731 5.02129 18.8467 5.08728 18.9127C5.1533 18.9787 5.22687 19.0125 5.3077 19.0125H11.2596C11.4693 19.0125 11.6442 19.0831 11.7854 19.2242C11.9265 19.3653 11.9971 19.5403 11.9971 19.75C11.9971 19.9596 11.9265 20.1346 11.7854 20.2757C11.6442 20.4168 11.4693 20.4875 11.2596 20.4875H5.3077C4.80581 20.4875 4.38144 20.3137 4.03384 19.9661C3.68624 19.6185 3.5125 19.1941 3.5125 18.6923V5.3077C3.5125 4.80581 3.68624 4.38144 4.03384 4.03384C4.38144 3.68624 4.80581 3.5125 5.3077 3.5125H11.2596C11.4693 3.5125 11.6442 3.58311 11.7854 3.72424C11.9265 3.86536 11.9971 4.04032 11.9971 4.25C11.9971 4.45968 11.9265 4.63464 11.7854 4.77576C11.6442 4.91688 11.4693 4.98748 11.2596 4.98748H5.3077C5.22687 4.98748 5.1533 5.02129 5.08729 5.08729ZM17.6262 12.7588L17.6475 12.7375H17.6173H9.84612C9.63645 12.7375 9.46148 12.6669 9.32036 12.5257C9.17923 12.3846 9.10862 12.2097 9.10862 12C9.10862 11.7903 9.17923 11.6153 9.32036 11.4742C9.46148 11.3331 9.63645 11.2625 9.84612 11.2625H17.6173H17.6475L17.6262 11.2412L15.7031 9.31809C15.567 9.18196 15.4974 9.01617 15.4942 8.82C15.4911 8.62411 15.5605 8.44994 15.7034 8.29701C15.846 8.14427 16.0185 8.06564 16.2215 8.0606C16.4242 8.05555 16.6017 8.12906 16.7546 8.28194L19.8488 11.3761C20.0274 11.5547 20.1163 11.7625 20.1163 12C20.1163 12.2375 20.0274 12.4452 19.8488 12.6238L16.7546 15.718C16.6082 15.8644 16.4348 15.9364 16.2338 15.9346C16.0329 15.9327 15.8562 15.8557 15.7032 15.7028C15.5605 15.5499 15.4921 15.3749 15.4971 15.1772C15.5022 14.9792 15.5758 14.8091 15.7185 14.6665L17.6262 12.7588Z" fill="white" stroke="white" stroke-width="0.025"/>
</svg>
