<svg width="26" height="26" viewBox="0 0 26 26" fill="none" xmlns="http://www.w3.org/2000/svg">
<path d="M5.51378 20.4857C5.21077 20.4857 4.95678 20.3832 4.7518 20.1783C4.54682 19.9733 4.44434 19.7193 4.44434 19.4163C4.44434 19.1133 4.54682 18.8593 4.7518 18.6543C4.95678 18.4493 5.21077 18.3468 5.51378 18.3468H6.58322L6.58322 10.8607C6.58322 9.38133 7.02883 8.06681 7.92003 6.91715C8.81123 5.7675 9.9698 5.01443 11.3957 4.65795V3.90934C11.3957 3.46374 11.5517 3.08498 11.8636 2.77306C12.1755 2.46114 12.5543 2.30518 12.9999 2.30518C13.4455 2.30518 13.8243 2.46114 14.1362 2.77306C14.4481 3.08498 14.6041 3.46374 14.6041 3.90934V4.65795C16.03 5.01443 17.1885 5.7675 18.0798 6.91715C18.971 8.06681 19.4166 9.38133 19.4166 10.8607V18.3468H20.486C20.789 18.3468 21.043 18.4493 21.248 18.6543C21.453 18.8593 21.5554 19.1133 21.5554 19.4163C21.5554 19.7193 21.453 19.9733 21.248 20.1783C21.043 20.3832 20.789 20.4857 20.486 20.4857L5.51378 20.4857ZM12.9999 23.6941C12.4117 23.6941 11.9082 23.4846 11.4893 23.0658C11.0704 22.6469 10.861 22.1434 10.861 21.5552H15.1388C15.1388 22.1434 14.9293 22.6469 14.5105 23.0658C14.0916 23.4846 13.5881 23.6941 12.9999 23.6941ZM8.72211 18.3468L17.2777 18.3468V10.8607C17.2777 9.68434 16.8588 8.67728 16.0211 7.83955C15.1833 7.00182 14.1763 6.58295 12.9999 6.58295C11.8235 6.58295 10.8164 7.00182 9.97871 7.83955C9.14098 8.67728 8.72211 9.68434 8.72211 10.8607L8.72211 18.3468Z" fill="white"/>
</svg>
