<svg width="24" height="24" viewBox="0 0 24 24" fill="none" xmlns="http://www.w3.org/2000/svg">
<path d="M11.9962 19.9123L11.9954 19.915L12.0038 19.9123C13.74 19.3614 15.1756 18.2595 16.3103 16.6075C17.4451 14.9554 18.0125 13.1196 18.0125 11.1004V6.37539V6.36673L18.0044 6.36369L12.0044 4.11369L12.0058 4.10986L11.9956 4.11369L5.99561 6.36369L5.9875 6.36673V6.37539V11.1004C5.9875 13.1196 6.55492 14.9554 7.6897 16.6075C8.82444 18.2595 10.26 19.3614 11.9962 19.9123ZM12.7037 16.7041C12.5145 16.8933 12.2802 16.9879 12 16.9879C11.7198 16.9879 11.4855 16.8933 11.2963 16.7041C11.1071 16.5148 11.0125 16.2806 11.0125 16.0004V12.0004C11.0125 11.7202 11.1071 11.4859 11.2963 11.2967C11.4855 11.1075 11.7198 11.0129 12 11.0129C12.2802 11.0129 12.5145 11.1075 12.7037 11.2967C12.8929 11.4859 12.9875 11.7202 12.9875 12.0004V16.0004C12.9875 16.2806 12.8929 16.5148 12.7037 16.7041ZM12.7037 8.70405C12.5145 8.89326 12.2802 8.98789 12 8.98789C11.7198 8.98789 11.4855 8.89326 11.2963 8.70405C11.1071 8.51484 11.0125 8.28058 11.0125 8.00039C11.0125 7.72021 11.1071 7.48594 11.2963 7.29673C11.4855 7.10752 11.7198 7.01289 12 7.01289C12.2802 7.01289 12.5145 7.10752 12.7037 7.29673C12.8929 7.48594 12.9875 7.72021 12.9875 8.00039C12.9875 8.28058 12.8929 8.51484 12.7037 8.70405ZM12 21.8879C11.8839 21.8879 11.7763 21.8796 11.6771 21.8631C11.5777 21.8465 11.4784 21.8217 11.379 21.7885C9.13168 21.0394 7.34227 19.6537 6.01044 17.631C4.6784 15.608 4.0125 13.4312 4.0125 11.1004V6.37539C4.0125 5.96133 4.13252 5.5889 4.37262 5.25773C4.61286 4.92636 4.9234 4.6862 5.30447 4.53707C5.3045 4.53705 5.30453 4.53704 5.30456 4.53703L11.3042 2.28716C11.3042 2.28715 11.3043 2.28714 11.3043 2.28713C11.5363 2.20427 11.7682 2.16289 12 2.16289C12.2318 2.16289 12.4637 2.20427 12.6957 2.28713C12.6957 2.28714 12.6958 2.28715 12.6958 2.28716L18.6954 4.53703C18.6955 4.53704 18.6955 4.53705 18.6955 4.53707C19.0766 4.6862 19.3871 4.92636 19.6274 5.25773C19.8675 5.5889 19.9875 5.96133 19.9875 6.37539V11.1004C19.9875 13.4312 19.3216 15.608 17.9896 17.631C16.6577 19.6537 14.8683 21.0394 12.621 21.7885C12.5216 21.8217 12.4223 21.8465 12.3229 21.8631C12.2237 21.8796 12.1161 21.8879 12 21.8879Z" fill="white" stroke="white" stroke-width="0.025"/>
</svg>
