<svg width="24" height="24" viewBox="0 0 24 24" fill="none" xmlns="http://www.w3.org/2000/svg">
<path d="M3.98747 19.9474V19.9599H3.99997H20H20.0125V19.9474V18.9579C20.0125 18.6782 19.9336 18.4192 19.7758 18.1813C19.6182 17.9435 19.4043 17.7496 19.1343 17.5996L19.1339 17.5994C17.9844 17.0183 16.8122 16.578 15.6173 16.2787C14.4224 15.9793 13.2166 15.8296 12 15.8296C10.7834 15.8296 9.57758 15.9793 8.38268 16.2787C7.18783 16.578 6.01564 17.0183 4.86614 17.5994L4.86613 17.5994L4.8657 17.5996C4.59573 17.7496 4.38179 17.9435 4.22419 18.1813C4.06644 18.4192 3.98747 18.6782 3.98747 18.9579V19.9474ZM12 11.5664C10.7201 11.5664 9.62473 11.0989 8.71314 10.1633C7.80154 9.2277 7.34585 8.10332 7.34585 6.78947C7.34585 5.47559 7.80154 4.35121 8.71314 3.41564C9.62473 2.48005 10.7201 2.0125 12 2.0125C13.2799 2.0125 14.3753 2.48005 15.2869 3.41564C16.1985 4.35121 16.6541 5.47559 16.6541 6.78947C16.6541 8.10332 16.1985 9.2277 15.2869 10.1633C14.3753 11.0989 13.2799 11.5664 12 11.5664ZM2.0125 19.9211V18.9579C2.0125 18.2901 2.1892 17.6718 2.54269 17.1027C2.89617 16.5336 3.36838 16.0961 3.95948 15.7901C5.27665 15.1274 6.60526 14.6303 7.94532 14.299C9.28538 13.9677 10.6369 13.802 12 13.802C13.3631 13.802 14.7146 13.9677 16.0547 14.299C17.3947 14.6303 18.7233 15.1274 20.0405 15.7901C20.6316 16.0961 21.1038 16.5336 21.4573 17.1027C21.8108 17.6718 21.9875 18.2901 21.9875 18.9579V19.9211C21.9875 20.4951 21.7917 20.9827 21.4 21.3847C21.0084 21.7867 20.5334 21.9875 19.9744 21.9875H4.02561C3.46661 21.9875 2.99165 21.7867 2.59999 21.3847C2.20829 20.9827 2.0125 20.4951 2.0125 19.9211ZM12 9.53882C12.7368 9.53882 13.3678 9.26942 13.8923 8.7311C14.4168 8.19278 14.6792 7.54534 14.6792 6.78947C14.6792 6.03359 14.4168 5.38616 13.8923 4.84784C13.3678 4.30951 12.7368 4.04011 12 4.04011C11.2632 4.04011 10.6322 4.30951 10.1077 4.84784C9.58319 5.38616 9.32082 6.03359 9.32082 6.78947C9.32082 7.54534 9.58319 8.19278 10.1077 8.7311C10.6322 9.26942 11.2632 9.53882 12 9.53882Z" fill="white" stroke="white" stroke-width="0.025"/>
</svg>
