<svg width="24" height="24" viewBox="0 0 24 24" fill="none" xmlns="http://www.w3.org/2000/svg">
<path d="M8.86285 18.7983L8.87618 18.7965L8.85496 18.7883C8.63896 18.7053 8.43547 18.6056 8.24447 18.4893C8.0531 18.3728 7.86588 18.248 7.68282 18.1149L7.68965 18.1055L7.67063 18.1135L6.12063 18.7635L6.12043 18.7636C5.70661 18.9456 5.29326 18.9621 4.8797 18.8132C4.46581 18.6642 4.14309 18.3995 3.91122 18.0186C3.9112 18.0186 3.91117 18.0185 3.91115 18.0185L2.73632 15.9688L2.73615 15.9685C2.50449 15.5879 2.43839 15.1829 2.53765 14.7528C2.637 14.3223 2.8604 13.9664 3.20816 13.6849C3.20822 13.6848 3.20828 13.6848 3.20833 13.6847L4.533 12.685L4.54104 12.6956L4.53784 12.6732C4.52125 12.5571 4.51297 12.4452 4.51297 12.3375V11.6625C4.51297 11.5548 4.52125 11.4429 4.53784 11.3268L4.55106 11.3287L4.533 11.315L3.20833 10.3153C3.20828 10.3152 3.20823 10.3152 3.20818 10.3152C2.86041 10.0336 2.637 9.6777 2.53765 9.24719C2.43839 8.81707 2.50449 8.41207 2.73615 8.0315L2.73615 8.0315L2.73631 8.03122L3.91115 5.9815C3.91118 5.98145 3.9112 5.9814 3.91123 5.98135C4.1431 5.6005 4.46581 5.33576 4.8797 5.18676C5.29326 5.03788 5.70661 5.05436 6.12043 5.23644L6.12063 5.23653L7.67063 5.88653L7.66614 5.89724L7.68282 5.88511C7.86581 5.75203 8.05712 5.62726 8.25677 5.5108C8.45632 5.39439 8.65582 5.29464 8.85528 5.21154L8.85997 5.22281L8.86285 5.20169L9.08782 3.5519C9.08783 3.55187 9.08783 3.55184 9.08784 3.55181C9.15408 3.12134 9.34853 2.75726 9.67145 2.45919C9.99409 2.16136 10.3786 2.0125 10.8255 2.0125H13.1755C13.6224 2.0125 14.0068 2.16136 14.3295 2.45919C14.6524 2.75726 14.8469 3.12134 14.9131 3.55181C14.9131 3.55184 14.9131 3.55187 14.9131 3.5519L15.1381 5.20169L15.1248 5.20351L15.146 5.21167C15.362 5.29474 15.5655 5.39441 15.7565 5.51068C15.9478 5.62716 16.1351 5.75197 16.3181 5.88511L16.3113 5.8945L16.3303 5.88653L17.8803 5.23653L17.8805 5.23644C18.2943 5.05436 18.7077 5.03788 19.1212 5.18676C19.5351 5.33576 19.8578 5.6005 20.0897 5.98134C20.0897 5.9814 20.0898 5.98145 20.0898 5.9815L21.2646 8.03122L21.2648 8.0315C21.4964 8.41207 21.5625 8.81707 21.4633 9.24719C21.3639 9.67771 21.1405 10.0336 20.7927 10.3152C20.7927 10.3152 20.7927 10.3152 20.7926 10.3153L19.4679 11.315L19.4599 11.3044L19.4631 11.3268C19.4797 11.4429 19.488 11.5548 19.488 11.6625V12.3375C19.488 12.4445 19.4715 12.5559 19.4384 12.6716L19.4361 12.6798L19.4429 12.685L20.7676 13.6847C20.7677 13.6848 20.7677 13.6848 20.7677 13.6848C21.1155 13.9664 21.3389 14.3223 21.4383 14.7528C21.5375 15.1829 21.4714 15.5879 21.2398 15.9685L21.2397 15.9687L20.0398 18.0185C20.0398 18.0185 20.0398 18.0186 20.0397 18.0186C19.8079 18.3995 19.4851 18.6642 19.0712 18.8132C18.6577 18.9621 18.2443 18.9456 17.8305 18.7636L17.8304 18.7635L16.3304 18.1135L16.3352 18.1024L16.3181 18.1149C16.1351 18.248 15.9438 18.3727 15.7442 18.4892C15.5446 18.6056 15.3451 18.7054 15.1457 18.7885L15.141 18.7772L15.1381 18.7983L14.9131 20.4481C14.9131 20.4481 14.9131 20.4482 14.9131 20.4482C14.8469 20.8787 14.6524 21.2427 14.3295 21.5408C14.0068 21.8386 13.6224 21.9875 13.1755 21.9875H10.8255C10.3786 21.9875 9.99409 21.8386 9.67145 21.5408C9.34853 21.2427 9.15408 20.8787 9.08784 20.4482C9.08783 20.4482 9.08783 20.4481 9.08782 20.4481L8.86285 18.7983ZM10.9881 20.0015L10.9894 20.0125H11.0005H12.9755H12.9864L12.9879 20.0016L13.3368 17.36C13.8514 17.2264 14.3289 17.0309 14.7693 16.7733C15.2095 16.5158 15.6126 16.2046 15.9784 15.8397L18.4457 16.8615L18.4558 16.8658L18.4613 16.8562L19.4363 15.1562L19.4418 15.1467L19.433 15.14L17.2903 13.5206C17.3723 13.2889 17.4298 13.0451 17.4629 12.7891C17.4963 12.5302 17.513 12.2672 17.513 12C17.513 11.7328 17.4963 11.4698 17.4629 11.2109C17.4298 10.9549 17.3723 10.7111 17.2903 10.4794L19.433 8.85997L19.4418 8.85333L19.4363 8.84378L18.4613 7.14378L18.4558 7.13416L18.4456 7.13849L15.9785 8.18512C15.6127 7.80374 15.2096 7.48425 14.7693 7.22671C14.3289 6.96915 13.8514 6.77359 13.3368 6.64003L13.0129 3.99848L13.0115 3.9875H13.0005H11.0255H11.0145L11.0131 3.99836L10.6642 6.64001C10.1496 6.77357 9.67203 6.96913 9.23166 7.22671C8.79143 7.4842 8.38839 7.79539 8.02254 8.16026L5.55525 7.13845L5.54509 7.13424L5.53963 7.14378L4.56463 8.84378L4.55911 8.8534L4.56801 8.86003L6.71076 10.4546C6.62871 10.7025 6.57114 10.9504 6.53808 11.1983C6.50466 11.449 6.48797 11.7162 6.48797 12C6.48797 12.2672 6.50467 12.5261 6.53808 12.7767C6.57114 13.0246 6.62872 13.2726 6.71078 13.5204L4.56793 15.14L4.55915 15.1467L4.56463 15.1562L5.53963 16.8562L5.54514 16.8658L5.55535 16.8615L8.02241 15.8149C8.38826 16.1963 8.79135 16.5158 9.23166 16.7733C9.67201 17.0309 10.1495 17.2264 10.6641 17.36L10.9881 20.0015ZM14.5166 14.4662C13.8356 15.1472 13.0138 15.4875 12.0505 15.4875C11.0704 15.4875 10.2445 15.1471 9.57186 14.4662C8.89919 13.7852 8.56297 12.9634 8.56297 12C8.56297 11.0366 8.89919 10.2148 9.57186 9.53378C10.2445 8.85289 11.0704 8.5125 12.0505 8.5125C13.0138 8.5125 13.8356 8.85285 14.5166 9.53384C15.1976 10.2148 15.538 11.0366 15.538 12C15.538 12.9634 15.1976 13.7852 14.5166 14.4662Z" fill="white" stroke="white" stroke-width="0.025"/>
</svg>
