<svg width="24" height="24" viewBox="0 0 24 24" fill="none" xmlns="http://www.w3.org/2000/svg">
<path d="M15.5298 6.47024L12.5298 3.47024C12.2368 3.17724 11.7618 3.17724 11.4688 3.47024L8.46877 6.47024C8.17577 6.76324 8.17577 7.23824 8.46877 7.53124C8.76177 7.82424 9.23677 7.82424 9.52977 7.53124L11.2498 5.81124V16.0002C11.2498 16.4142 11.5858 16.7502 11.9998 16.7502C12.4138 16.7502 12.7498 16.4142 12.7498 16.0002V5.81124L14.4698 7.53124C14.6158 7.67724 14.8078 7.75124 14.9998 7.75124C15.1918 7.75124 15.3838 7.67824 15.5298 7.53124C15.8228 7.23824 15.8228 6.76324 15.5298 6.47024Z" fill="white"/>
<path d="M18 20.75H6C4.483 20.75 3.25 19.517 3.25 18V13C3.25 11.483 4.483 10.25 6 10.25H7C7.414 10.25 7.75 10.586 7.75 11C7.75 11.414 7.414 11.75 7 11.75H6C5.311 11.75 4.75 12.311 4.75 13V18C4.75 18.689 5.311 19.25 6 19.25H18C18.689 19.25 19.25 18.689 19.25 18V13C19.25 12.311 18.689 11.75 18 11.75H17C16.586 11.75 16.25 11.414 16.25 11C16.25 10.586 16.586 10.25 17 10.25H18C19.517 10.25 20.75 11.483 20.75 13V18C20.75 19.517 19.517 20.75 18 20.75Z" fill="white"/>
</svg>
