<svg width="24" height="24" viewBox="0 0 24 24" fill="none" xmlns="http://www.w3.org/2000/svg">
<path d="M13.3877 14.4026L13.3877 14.4026L13.3878 14.4031C13.4202 14.5489 13.384 14.6824 13.2781 14.8047C13.1718 14.9273 13.046 14.9879 12.9 14.9879H11.1C10.954 14.9879 10.8282 14.9273 10.7219 14.8047C10.616 14.6824 10.5798 14.5489 10.6122 14.4031L10.6123 14.4026L11.0873 11.7776L11.089 11.7684L11.0806 11.7642C10.7494 11.5986 10.4886 11.3586 10.2982 11.0439C10.1078 10.7293 10.0125 10.3815 10.0125 10.0004C10.0125 9.45373 10.207 8.98607 10.5963 8.59673C10.9857 8.20739 11.4533 8.01289 12 8.01289C12.5467 8.01289 13.0143 8.20739 13.4037 8.59673C13.793 8.98607 13.9875 9.45373 13.9875 10.0004C13.9875 10.3815 13.8922 10.7293 13.7018 11.0439C13.5114 11.3586 13.2506 11.5986 12.9194 11.7642L12.911 11.7684L12.9127 11.7776L13.3877 14.4026ZM11.9962 19.9123L11.9954 19.915L12.0038 19.9123C13.74 19.3614 15.1756 18.2595 16.3103 16.6075C17.4451 14.9554 18.0125 13.1196 18.0125 11.1004V6.37539V6.36673L18.0044 6.36369L12.0044 4.11369L12.0058 4.10986L11.9956 4.11369L5.99561 6.36369L5.9875 6.36673V6.37539V11.1004C5.9875 13.1196 6.55492 14.9554 7.6897 16.6075C8.82444 18.2595 10.26 19.3614 11.9962 19.9123ZM12 21.8879C11.8839 21.8879 11.7763 21.8796 11.6771 21.8631C11.5777 21.8465 11.4784 21.8217 11.379 21.7885C9.13168 21.0394 7.34227 19.6537 6.01044 17.631C4.6784 15.608 4.0125 13.4312 4.0125 11.1004V6.37539C4.0125 5.96133 4.13252 5.5889 4.37262 5.25773C4.61286 4.92636 4.9234 4.6862 5.30447 4.53707C5.3045 4.53705 5.30453 4.53704 5.30456 4.53703L11.3042 2.28716C11.3042 2.28715 11.3043 2.28714 11.3043 2.28713C11.5363 2.20427 11.7682 2.16289 12 2.16289C12.2318 2.16289 12.4637 2.20427 12.6957 2.28713C12.6957 2.28714 12.6958 2.28715 12.6958 2.28716L18.6954 4.53703C18.6955 4.53704 18.6955 4.53705 18.6955 4.53707C19.0766 4.6862 19.3871 4.92636 19.6274 5.25773C19.8675 5.5889 19.9875 5.96133 19.9875 6.37539V11.1004C19.9875 13.4312 19.3216 15.608 17.9896 17.631C16.6577 19.6537 14.8683 21.0394 12.621 21.7885C12.5216 21.8217 12.4223 21.8465 12.3229 21.8631C12.2237 21.8796 12.1161 21.8879 12 21.8879Z" fill="white" stroke="white" stroke-width="0.025"/>
</svg>
